<svg width="40" height="40" viewBox="0 0 40 40" fill="none" xmlns="http://www.w3.org/2000/svg">
<rect x="39" y="1" width="38" height="38" rx="19" transform="rotate(90 39 1)" stroke="#8E8E8E" stroke-width="2"/>
<path d="M17.7233 15.1888C17.7234 15.1889 17.7234 15.1889 17.7234 15.1889C17.8119 15.2775 17.8119 15.4209 17.7233 15.5095L17.7233 15.5095L14.3131 18.9199L13.4595 19.7734L14.6666 19.7734L27.0879 19.7734C27.213 19.7734 27.3146 19.875 27.3146 20.0001C27.3146 20.1253 27.213 20.2268 27.0879 20.2268L14.6666 20.2268L13.4595 20.2268L14.3131 21.0804L17.7235 24.4908C17.812 24.5793 17.812 24.7229 17.7235 24.8114C17.6349 24.8999 17.4913 24.8999 17.4028 24.8114L12.7518 20.1605C12.6633 20.0719 12.6633 19.9284 12.7518 19.8398L12.3983 19.4863M17.7233 15.1888L18.0769 14.8353C17.935 14.6935 17.749 14.6224 17.563 14.6224C17.377 14.6224 17.1911 14.6935 17.0491 14.8353L12.3983 19.4863M17.7233 15.1888C17.6789 15.1445 17.6217 15.1224 17.563 15.1224C17.5044 15.1224 17.4471 15.1445 17.4025 15.189M17.7233 15.1888L17.4025 15.189M12.3983 19.4863L12.7518 19.8398L17.4025 15.189M12.3983 19.4863L17.4025 15.189" fill="black" stroke="#8E8E8E"/>
</svg>
