<svg width="40" height="41" viewBox="0 0 40 41" fill="none" xmlns="http://www.w3.org/2000/svg">
<rect x="1" y="39.1696" width="38" height="38" rx="19" transform="rotate(-90 1 39.1696)" stroke="#8E8E8E" stroke-width="2"/>
<path d="M22.2767 24.9807C22.2766 24.9807 22.2766 24.9807 22.2766 24.9807C22.1881 24.8921 22.1881 24.7486 22.2767 24.6601L22.2767 24.6601L25.6869 21.2497L26.5405 20.3962H25.3334H12.9121C12.787 20.3962 12.6854 20.2946 12.6854 20.1694C12.6854 20.0443 12.787 19.9427 12.9121 19.9427H25.3334H26.5405L25.6869 19.0892L22.2765 15.6788C22.188 15.5902 22.188 15.4467 22.2765 15.3581C22.3651 15.2696 22.5087 15.2696 22.5972 15.3581L27.2482 20.0091C27.3367 20.0977 27.3367 20.2412 27.2482 20.3298L27.6017 20.6833M22.2767 24.9807L21.9231 25.3343C22.065 25.4761 22.251 25.5471 22.437 25.5471C22.623 25.5471 22.8089 25.4761 22.9509 25.3343L27.6017 20.6833M22.2767 24.9807C22.3211 25.0251 22.3783 25.0471 22.437 25.0471C22.4956 25.0471 22.5529 25.0251 22.5975 24.9806M22.2767 24.9807L22.5975 24.9806M27.6017 20.6833L27.2482 20.3298L22.5975 24.9806M27.6017 20.6833L22.5975 24.9806" fill="black" stroke="#8E8E8E"/>
</svg>
