<svg width="40" height="41" viewBox="0 0 40 41" fill="none" xmlns="http://www.w3.org/2000/svg">
<rect x="1" y="39.1696" width="38" height="38" rx="19" transform="rotate(-90 1 39.1696)" stroke="black" stroke-width="2"/>
<path d="M25.3334 19.9427H26.5405L25.6869 19.0892L22.2765 15.6788L21.923 16.0324L22.2765 15.6788C22.188 15.5902 22.188 15.4467 22.2765 15.3582C22.3651 15.2697 22.5087 15.2697 22.5972 15.3582L27.2482 20.0091C27.3367 20.0977 27.3367 20.2412 27.2482 20.3298L27.6017 20.6833L27.2482 20.3298L22.5975 24.9806C22.5529 25.0251 22.4956 25.0471 22.437 25.0471C22.3783 25.0471 22.3211 25.0251 22.2767 24.9807C22.1881 24.8922 22.1881 24.7487 22.2767 24.6601L22.2767 24.6601L25.6869 21.2497L26.5405 20.3962H25.3334H12.9121C12.787 20.3962 12.6854 20.2946 12.6854 20.1695C12.6854 20.0443 12.787 19.9427 12.9121 19.9427H25.3334Z" fill="black" stroke="black"/>
</svg>
