<svg width="12" height="17" viewBox="0 0 12 17" fill="none" xmlns="http://www.w3.org/2000/svg">
<path d="M10.511 8.74355C10.4393 9.78564 9.84504 10.5172 9.15896 10.8273C8.4315 11.156 7.6962 10.9747 7.32908 10.376C6.72803 9.39586 7.14104 8.71368 7.54043 8.05393C7.99328 7.30583 8.50661 6.45789 8.01427 4.80896C7.6256 3.50717 6.86441 2.41427 5.75181 1.56058C5.40498 1.29449 5.07604 1.09436 4.80909 0.95105C5.18193 1.85861 5.66679 3.54746 5.16032 5.41333C4.8391 6.59686 3.99016 7.49374 3.16915 8.36108C2.08781 9.50352 0.969604 10.6848 0.969604 12.5723C0.969604 14.0365 1.47975 15.203 2.48583 16.0392C3.2477 16.6725 4.02513 16.9191 4.03288 16.921H5.88796L5.84913 16.9203C5.84198 16.9147 5.13524 16.3569 5.12306 15.7171C5.11739 15.418 5.27432 15.1312 5.58948 14.8645C6.06288 14.4639 6.32306 14.0326 6.38496 13.546C6.42281 13.2483 6.38454 12.9337 6.26823 12.594C7.0534 12.9233 7.86559 13.6423 8.14083 14.5349C8.388 15.3364 8.15935 16.1607 7.48022 16.921H9.51043C10.8403 15.8792 11.5889 14.6306 11.7357 13.2101C11.9228 11.3989 11.0948 9.69305 10.511 8.74355Z" fill="black"/>
</svg>
