<svg width="50" height="50" viewBox="0 0 50 50" fill="none" xmlns="http://www.w3.org/2000/svg">
<path d="M13.3636 20.5V21H13.8636H18.6818V23.5H13.8636H13.3636V24V28.75H10.8182V24V23.5H10.3182H5.5V21H10.3182H10.8182V20.5V15.75H13.3636V20.5ZM36.4091 17C36.4091 20.5853 33.4659 23.5 29.8182 23.5C26.1705 23.5 23.2273 20.5853 23.2273 17C23.2273 13.4147 26.1705 10.5 29.8182 10.5C33.4659 10.5 36.4091 13.4147 36.4091 17ZM16.1364 34.5C16.1364 33.5224 16.6285 32.6274 17.5234 31.812C18.4215 30.9938 19.6894 30.2915 21.1362 29.7193C24.0303 28.5748 27.5132 28 29.8182 28C32.1231 28 35.6061 28.5748 38.5002 29.7193C39.9469 30.2915 41.2149 30.9938 42.1129 31.812C43.0079 32.6274 43.5 33.5224 43.5 34.5V37.5H16.1364V34.5Z" fill="black" stroke="white"/>
</svg>
