<svg width="29" height="29" viewBox="0 0 29 29" fill="none" xmlns="http://www.w3.org/2000/svg">
<path d="M20.6765 7.05882C20.6765 10.6827 17.7415 13.6176 14.1176 13.6176C10.4938 13.6176 7.55882 10.6827 7.55882 7.05882C7.55882 3.43497 10.4938 0.5 14.1176 0.5C17.7415 0.5 20.6765 3.43497 20.6765 7.05882ZM0.5 24.7059C0.5 23.716 0.991904 22.8119 1.8824 21.99C2.7763 21.165 4.03814 20.4571 5.47785 19.8803C8.35806 18.7265 11.8243 18.1471 14.1176 18.1471C16.411 18.1471 19.8772 18.7265 22.7574 19.8803C24.1972 20.4571 25.459 21.165 26.3529 21.99C27.2434 22.8119 27.7353 23.716 27.7353 24.7059V27.7353H0.5V24.7059Z" fill="black" stroke="white"/>
</svg>
